<svg width="17" height="17" viewBox="0 0 17 17" fill="none" xmlns="http://www.w3.org/2000/svg">
<path d="M12.8488 8.81186L9.62501 7.62061L8.43751 4.39436C8.36719 4.20331 8.23995 4.03843 8.07298 3.92197C7.90601 3.80551 7.70733 3.74306 7.50376 3.74306C7.30018 3.74306 7.1015 3.80551 6.93453 3.92197C6.76756 4.03843 6.64033 4.20331 6.57001 4.39436L5.37501 7.62061L2.14876 8.80811C1.95771 8.87843 1.79284 9.00566 1.67637 9.17263C1.55991 9.3396 1.49747 9.53828 1.49747 9.74186C1.49747 9.94543 1.55991 10.1441 1.67637 10.3111C1.79284 10.4781 1.95771 10.6053 2.14876 10.6756L5.37501 11.8706L6.56251 15.0969C6.63283 15.2879 6.76006 15.4528 6.92703 15.5692C7.094 15.6857 7.29268 15.7481 7.49626 15.7481C7.69983 15.7481 7.89851 15.6857 8.06548 15.5692C8.23245 15.4528 8.35969 15.2879 8.43001 15.0969L9.62501 11.8706L12.8513 10.6831C13.0423 10.6128 13.2072 10.4856 13.3236 10.3186C13.4401 10.1516 13.5025 9.95293 13.5025 9.74936C13.5025 9.54578 13.4401 9.3471 13.3236 9.18013C13.2072 9.01316 13.0423 8.88593 12.8513 8.81561L12.8488 8.81186ZM9.06251 11.0094C8.99464 11.0344 8.933 11.0738 8.88186 11.125C8.83071 11.1761 8.79127 11.2377 8.76626 11.3056L7.50001 14.7362L6.23626 11.3081C6.21129 11.2395 6.1716 11.1772 6.11999 11.1256C6.06838 11.074 6.00609 11.0343 5.93751 11.0094L2.50938 9.74561L5.93751 8.48186C6.00609 8.45688 6.06838 8.4172 6.11999 8.36559C6.1716 8.31397 6.21129 8.25169 6.23626 8.18311L7.50001 4.75498L8.76376 8.18311C8.78877 8.25098 8.82821 8.31261 8.87936 8.36376C8.9305 8.4149 8.99214 8.45434 9.06001 8.47936L12.4906 9.74561L9.06251 11.0094ZM9.50001 3.24561C9.50001 3.113 9.55269 2.98582 9.64645 2.89205C9.74022 2.79828 9.8674 2.74561 10 2.74561H11V1.74561C11 1.613 11.0527 1.48582 11.1465 1.39205C11.2402 1.29828 11.3674 1.24561 11.5 1.24561C11.6326 1.24561 11.7598 1.29828 11.8536 1.39205C11.9473 1.48582 12 1.613 12 1.74561V2.74561H13C13.1326 2.74561 13.2598 2.79828 13.3536 2.89205C13.4473 2.98582 13.5 3.113 13.5 3.24561C13.5 3.37821 13.4473 3.50539 13.3536 3.59916C13.2598 3.69293 13.1326 3.74561 13 3.74561H12V4.74561C12 4.87821 11.9473 5.00539 11.8536 5.09916C11.7598 5.19293 11.6326 5.24561 11.5 5.24561C11.3674 5.24561 11.2402 5.19293 11.1465 5.09916C11.0527 5.00539 11 4.87821 11 4.74561V3.74561H10C9.8674 3.74561 9.74022 3.69293 9.64645 3.59916C9.55269 3.50539 9.50001 3.37821 9.50001 3.24561ZM16 6.24561C16 6.37821 15.9473 6.50539 15.8536 6.59916C15.7598 6.69293 15.6326 6.74561 15.5 6.74561H15V7.24561C15 7.37821 14.9473 7.50539 14.8536 7.59916C14.7598 7.69293 14.6326 7.74561 14.5 7.74561C14.3674 7.74561 14.2402 7.69293 14.1465 7.59916C14.0527 7.50539 14 7.37821 14 7.24561V6.74561H13.5C13.3674 6.74561 13.2402 6.69293 13.1465 6.59916C13.0527 6.50539 13 6.37821 13 6.24561C13 6.113 13.0527 5.98582 13.1465 5.89205C13.2402 5.79828 13.3674 5.74561 13.5 5.74561H14V5.24561C14 5.113 14.0527 4.98582 14.1465 4.89205C14.2402 4.79828 14.3674 4.74561 14.5 4.74561C14.6326 4.74561 14.7598 4.79828 14.8536 4.89205C14.9473 4.98582 15 5.113 15 5.24561V5.74561H15.5C15.6326 5.74561 15.7598 5.79828 15.8536 5.89205C15.9473 5.98582 16 6.113 16 6.24561Z" fill="white"/>
</svg>
