<svg width="17" height="17" viewBox="0 0 17 17" fill="none" xmlns="http://www.w3.org/2000/svg">
<path d="M14.5 5.18937C14.3823 5.25032 14.2452 5.26204 14.1189 5.22196C13.9925 5.18188 13.8873 5.09327 13.8263 4.97562C13.349 4.0328 12.6266 3.23593 11.735 2.66875C11.6794 2.6337 11.6313 2.58805 11.5934 2.53441C11.5555 2.48077 11.5285 2.42018 11.514 2.35611C11.4995 2.29203 11.4977 2.22573 11.5088 2.16098C11.5199 2.09624 11.5437 2.03431 11.5788 1.97875C11.6138 1.92318 11.6594 1.87506 11.7131 1.83714C11.7667 1.79921 11.8273 1.77223 11.8914 1.75772C11.9555 1.74321 12.0218 1.74146 12.0865 1.75257C12.1513 1.76369 12.2132 1.78745 12.2688 1.8225C13.3079 2.48783 14.1516 3.41722 14.7138 4.51562C14.7747 4.63332 14.7864 4.7704 14.7463 4.89674C14.7063 5.02308 14.6177 5.12833 14.5 5.18937ZM2.73188 5.24562C2.82348 5.24558 2.91331 5.22038 2.99156 5.17277C3.06982 5.12515 3.13349 5.05696 3.17563 4.97562C3.65288 4.0328 4.37526 3.23593 5.26688 2.66875C5.3791 2.59797 5.4586 2.48551 5.48791 2.35611C5.51721 2.22671 5.49391 2.09096 5.42313 1.97875C5.35235 1.86653 5.23989 1.78702 5.11049 1.75772C4.98109 1.72841 4.84535 1.75172 4.73313 1.8225C3.694 2.48783 2.85024 3.41722 2.28813 4.51562C2.24865 4.59182 2.22945 4.6769 2.23238 4.76267C2.2353 4.84843 2.26025 4.93201 2.30483 5.00534C2.34941 5.07867 2.41211 5.1393 2.4869 5.18138C2.56169 5.22346 2.64606 5.24558 2.73188 5.24562ZM14.3631 11.7419C14.4517 11.8938 14.4987 12.0663 14.4993 12.2422C14.4999 12.418 14.4541 12.5909 14.3666 12.7434C14.279 12.8959 14.1528 13.0227 14.0007 13.1108C13.8485 13.199 13.6758 13.2455 13.5 13.2456H10.95C10.8352 13.8108 10.5286 14.3189 10.0821 14.6838C9.63563 15.0488 9.07668 15.2481 8.5 15.2481C7.92332 15.2481 7.36438 15.0488 6.91787 14.6838C6.47137 14.3189 6.16476 13.8108 6.05 13.2456H3.5C3.32427 13.2453 3.15172 13.1986 2.99976 13.1104C2.84779 13.0221 2.72176 12.8954 2.63438 12.7429C2.54699 12.5904 2.50132 12.4176 2.50198 12.2419C2.50264 12.0661 2.5496 11.8937 2.63813 11.7419C3.20125 10.77 3.5 9.38812 3.5 7.74562C3.5 6.41954 4.02679 5.14777 4.96447 4.21009C5.90215 3.2724 7.17392 2.74562 8.5 2.74562C9.82608 2.74562 11.0979 3.2724 12.0355 4.21009C12.9732 5.14777 13.5 6.41954 13.5 7.74562C13.5 9.3875 13.7988 10.7694 14.3631 11.7419ZM9.91375 13.2456H7.08625C7.18984 13.5378 7.38138 13.7906 7.63454 13.9695C7.8877 14.1483 8.19005 14.2443 8.5 14.2443C8.80996 14.2443 9.1123 14.1483 9.36546 13.9695C9.61862 13.7906 9.81016 13.5378 9.91375 13.2456ZM13.5 12.2456C12.835 11.1037 12.5 9.59 12.5 7.74562C12.5 6.68475 12.0786 5.66734 11.3284 4.91719C10.5783 4.16705 9.56087 3.74562 8.5 3.74562C7.43914 3.74562 6.42172 4.16705 5.67157 4.91719C4.92143 5.66734 4.5 6.68475 4.5 7.74562C4.5 9.59062 4.16375 11.1044 3.5 12.2456H13.5Z" fill="white"/>
</svg>
