<svg width="17" height="17" viewBox="0 0 17 17" fill="none" xmlns="http://www.w3.org/2000/svg">
<path d="M13.8538 4.89186L11.3538 2.39186C11.3073 2.34544 11.2521 2.30863 11.1914 2.28354C11.1307 2.25844 11.0657 2.24555 11 2.24561H6C5.73478 2.24561 5.48043 2.35096 5.29289 2.5385C5.10536 2.72604 5 2.98039 5 3.24561V4.24561H4C3.73478 4.24561 3.48043 4.35096 3.29289 4.5385C3.10536 4.72604 3 4.98039 3 5.24561V14.2456C3 14.5108 3.10536 14.7652 3.29289 14.9527C3.48043 15.1402 3.73478 15.2456 4 15.2456H11C11.2652 15.2456 11.5196 15.1402 11.7071 14.9527C11.8946 14.7652 12 14.5108 12 14.2456V13.2456H13C13.2652 13.2456 13.5196 13.1402 13.7071 12.9527C13.8946 12.7652 14 12.5108 14 12.2456V5.24561C14.0001 5.17993 13.9872 5.11488 13.9621 5.05418C13.937 4.99348 13.9002 4.93832 13.8538 4.89186ZM11 14.2456H4V5.24561H8.79313L11 7.45248V12.7356C11 12.7394 11 12.7425 11 12.7456C11 12.7487 11 12.7519 11 12.7556V14.2456ZM13 12.2456H12V7.24561C12.0001 7.17992 11.9872 7.11488 11.9621 7.05418C11.937 6.99348 11.9002 6.93832 11.8538 6.89186L9.35375 4.39186C9.30728 4.34544 9.25212 4.30863 9.19143 4.28354C9.13073 4.25844 9.06568 4.24555 9 4.24561H6V3.24561H10.7931L13 5.45248V12.2456ZM9.5 10.2456C9.5 10.3782 9.44732 10.5054 9.35355 10.5992C9.25979 10.6929 9.13261 10.7456 9 10.7456H6C5.86739 10.7456 5.74021 10.6929 5.64645 10.5992C5.55268 10.5054 5.5 10.3782 5.5 10.2456C5.5 10.113 5.55268 9.98582 5.64645 9.89205C5.74021 9.79828 5.86739 9.74561 6 9.74561H9C9.13261 9.74561 9.25979 9.79828 9.35355 9.89205C9.44732 9.98582 9.5 10.113 9.5 10.2456ZM9.5 12.2456C9.5 12.3782 9.44732 12.5054 9.35355 12.5992C9.25979 12.6929 9.13261 12.7456 9 12.7456H6C5.86739 12.7456 5.74021 12.6929 5.64645 12.5992C5.55268 12.5054 5.5 12.3782 5.5 12.2456C5.5 12.113 5.55268 11.9858 5.64645 11.8921C5.74021 11.7983 5.86739 11.7456 6 11.7456H9C9.13261 11.7456 9.25979 11.7983 9.35355 11.8921C9.44732 11.9858 9.5 12.113 9.5 12.2456Z" fill="white"/>
</svg>
