<svg width="14" height="12" viewBox="0 0 14 12" fill="none" xmlns="http://www.w3.org/2000/svg">
<path d="M13 10.7456C13 10.8782 12.9473 11.0054 12.8536 11.0992C12.7598 11.1929 12.6326 11.2456 12.5 11.2456H0.5C0.367392 11.2456 0.240215 11.1929 0.146447 11.0992C0.0526784 11.0054 0 10.8782 0 10.7456V0.745605C0 0.612997 0.0526784 0.48582 0.146447 0.392052C0.240215 0.298284 0.367392 0.245605 0.5 0.245605C0.632608 0.245605 0.759785 0.298284 0.853553 0.392052C0.947321 0.48582 1 0.612997 1 0.745605V6.64373L4.17063 3.87061C4.2569 3.79508 4.36652 3.7515 4.4811 3.74718C4.59569 3.74286 4.70828 3.77805 4.8 3.84686L8.47563 6.60373L12.1706 3.37061C12.2191 3.32265 12.2768 3.2851 12.3403 3.26028C12.4038 3.23546 12.4717 3.22388 12.5398 3.22625C12.6079 3.22863 12.6749 3.24492 12.7365 3.2741C12.7981 3.30329 12.8531 3.34477 12.898 3.39599C12.943 3.44721 12.9771 3.50708 12.9981 3.57194C13.0191 3.63679 13.0266 3.70526 13.0201 3.77312C13.0137 3.84099 12.9935 3.90682 12.9607 3.96658C12.9279 4.02633 12.8832 4.07875 12.8294 4.12061L8.82938 7.62061C8.7431 7.69613 8.63348 7.73971 8.5189 7.74403C8.40431 7.74836 8.29173 7.71316 8.2 7.64436L4.52437 4.88873L1 7.97248V10.2456H12.5C12.6326 10.2456 12.7598 10.2983 12.8536 10.3921C12.9473 10.4858 13 10.613 13 10.7456Z" fill="white"/>
</svg>
