<svg width="17" height="17" viewBox="0 0 17 17" fill="none" xmlns="http://www.w3.org/2000/svg">
<path d="M14.3669 5.94311C15.0607 7.39424 15.1924 9.05094 14.7366 10.5935C14.2808 12.136 13.2697 13.455 11.8986 14.2959C10.5274 15.1368 8.89342 15.4401 7.31186 15.147C5.73031 14.854 4.31335 13.9856 3.33445 12.7093C2.35556 11.433 1.88413 9.83932 2.01114 8.23588C2.13816 6.63243 2.85462 5.13287 4.02225 4.02661C5.18987 2.92035 6.72589 2.28581 8.33386 2.24546C9.94182 2.20511 11.5077 2.76181 12.7294 3.80811L14.1463 2.39061C14.2401 2.29679 14.3673 2.24408 14.5 2.24408C14.6327 2.24408 14.7599 2.29679 14.8538 2.39061C14.9476 2.48443 15.0003 2.61168 15.0003 2.74436C15.0003 2.87704 14.9476 3.00429 14.8538 3.09811L8.85375 9.09811C8.75993 9.19193 8.63268 9.24464 8.5 9.24464C8.36732 9.24464 8.24007 9.19193 8.14625 9.09811C8.05243 9.00429 7.99972 8.87704 7.99972 8.74436C7.99972 8.61168 8.05243 8.48443 8.14625 8.39061L9.87875 6.65811C9.40922 6.34758 8.84863 6.20461 8.28773 6.25233C7.72683 6.30005 7.19845 6.53567 6.78813 6.92106C6.37781 7.30645 6.10957 7.81904 6.02682 8.37585C5.94408 8.93266 6.05168 9.5011 6.3322 9.98915C6.61272 10.4772 7.04975 10.8563 7.57253 11.0651C8.09532 11.2738 8.67326 11.3 9.2128 11.1395C9.75234 10.9789 10.2219 10.6409 10.5454 10.1803C10.869 9.71962 11.0276 9.16325 10.9956 8.60124C10.9919 8.53557 11.0012 8.46983 11.0229 8.40775C11.0446 8.34568 11.0784 8.28849 11.1222 8.23944C11.166 8.1904 11.2191 8.15047 11.2783 8.12193C11.3376 8.09339 11.4018 8.0768 11.4675 8.07311C11.6001 8.06565 11.7303 8.11118 11.8293 8.19967C11.8783 8.24349 11.9183 8.29654 11.9468 8.35578C11.9753 8.41503 11.9919 8.47932 11.9956 8.54499C12.0412 9.34047 11.814 10.1277 11.3516 10.7766C10.8891 11.4254 10.2191 11.8971 9.45229 12.1136C8.68547 12.33 7.86774 12.2784 7.13425 11.9672C6.40075 11.6559 5.79541 11.1038 5.41826 10.4019C5.04112 9.69999 4.91475 8.89043 5.06004 8.107C5.20533 7.32357 5.61359 6.61316 6.21734 6.09319C6.82108 5.57322 7.58418 5.27482 8.38049 5.2473C9.17681 5.21979 9.95868 5.46481 10.5969 5.94186L12.0188 4.51999C10.9768 3.65486 9.65186 3.20521 8.29854 3.25741C6.94521 3.3096 5.65889 3.85996 4.68662 4.80278C3.71435 5.74559 3.12469 7.01438 3.0309 8.36546C2.93711 9.71654 3.3458 11.0546 4.17848 12.1227C5.01115 13.1909 6.20909 13.9137 7.54222 14.1524C8.87535 14.391 10.2497 14.1288 11.4012 13.4159C12.5527 12.7031 13.4003 11.5899 13.7811 10.2902C14.1619 8.99051 14.0491 7.59595 13.4644 6.37436C13.4072 6.25468 13.3999 6.11719 13.4441 5.99212C13.4883 5.86706 13.5803 5.76467 13.7 5.70749C13.8197 5.6503 13.9572 5.643 14.0822 5.68718C14.2073 5.73137 14.3097 5.82343 14.3669 5.94311Z" fill="white"/>
</svg>
